<svg width="34" height="28" viewBox="0 0 34 28" fill="none" xmlns="http://www.w3.org/2000/svg">
<path d="M30.6 3.11111H25.211L22.1 0H11.9L8.789 3.11111H3.4C1.53 3.11111 0 4.51111 0 6.22222V24.8889C0 26.6 1.53 28 3.4 28H15.3V24.7489C10.489 24.0022 6.8 20.1756 6.8 15.5556H10.2C10.2 18.9933 13.243 21.7778 17 21.7778C20.757 21.7778 23.8 18.9933 23.8 15.5556H27.2C27.2 20.1756 23.511 24.0022 18.7 24.7489V28H30.6C32.47 28 34 26.6 34 24.8889V6.22222C34 4.51111 32.47 3.11111 30.6 3.11111ZM20.4 15.5556C20.4 17.2667 18.87 18.6667 17 18.6667C15.13 18.6667 13.6 17.2667 13.6 15.5556V9.33333C13.6 7.62222 15.13 6.22222 17 6.22222C18.87 6.22222 20.4 7.62222 20.4 9.33333V15.5556Z" fill="white"/>
</svg>
